<?xml version="1.0" ?><!DOCTYPE svg  PUBLIC '-//W3C//DTD SVG 1.1//EN'  'http://www.w3.org/Graphics/SVG/1.1/DTD/svg11.dtd'><svg enable-background="new 0 0 128 128" id="Layer_1" version="1.1" viewBox="0 0 128 128" xml:space="preserve" xmlns="http://www.w3.org/2000/svg" xmlns:xlink="http://www.w3.org/1999/xlink"><path d="M18,91V36.5c0-3.3,2.7-5.5,6-5.5h80c3.3,0,6,2.2,6,5.5V91" fill="#3E3E42"/><path d="M12,92.5v1c0,2.2,1.8,4.5,4,4.5h96c2.2,0,4-2.3,4-4.5v-1c0-1.1-0.9-1.5-2-1.5H14C12.9,91,12,91.4,12,92.5z" fill="#D2D2D6"/><rect fill="#57575E" height="50" width="82" x="23" y="36"/><path d="M76,94H52c-1.1,0-2-1.4-2-2.5V91h28v0.5C78,92.6,77.1,94,76,94z" fill="#A6A6AD"/></svg>