<?xml version="1.0" ?><svg viewBox="0 0 128 128" xmlns="http://www.w3.org/2000/svg"><defs><style>.cls-1{fill:#333;}.cls-2{fill:#4d4d4d;}.cls-3{fill:#1f1f1f;}.cls-4{fill:#666;}.cls-5{fill:#ffc219;}.cls-6{fill:#ffce47;}.cls-7{fill:#f47c27;}.cls-8{fill:#f69652;}.cls-9{fill:#ffda75;}</style></defs><title/><g data-name="20 Graduation" id="_20_Graduation"><path class="cls-1" d="M32,56V80.14a6,6,0,0,0,2,4.5,45.26,45.26,0,0,0,60,0,6,6,0,0,0,2-4.5V56Z"/><path class="cls-2" d="M34.08,60.76H96V56H32V80.14a6,6,0,0,0,2.08,4.55Z"/><path class="cls-3" d="M32,56v7.48L67.4,81.17a4.22,4.22,0,0,0,3.77,0L89.5,72a2.57,2.57,0,0,1,3.72,2.3v5.83a6,6,0,0,1-2,4.49A45.08,45.08,0,0,1,62.61,96,45.12,45.12,0,0,0,94,84.61a6,6,0,0,0,2-4.47V56Z"/><path class="cls-2" d="M62.11,32.45,17.17,54.94a2.11,2.11,0,0,0,0,3.77L62.11,81.17a4.22,4.22,0,0,0,3.77,0l44.95-22.47a2.11,2.11,0,0,0,0-3.77L65.89,32.45A4.22,4.22,0,0,0,62.11,32.45Z"/><path class="cls-4" d="M20.54,58.77a2.18,2.18,0,0,1,0-3.9s42.67-23,41.58-22.42L17.17,54.94a2.11,2.11,0,0,0,0,3.77L62.11,81.17C63.2,81.72,20.54,58.77,20.54,58.77Z"/><path class="cls-1" d="M107.46,58.77a2.18,2.18,0,0,0,0-3.9s-42.67-23-41.58-22.42l44.95,22.48a2.11,2.11,0,0,1,0,3.77L65.89,81.17C64.8,81.72,107.46,58.77,107.46,58.77Z"/><path class="cls-3" d="M40.7,89.54q.86.52,1.74,1V71.37L40.7,70.7Z"/><path class="cls-3" d="M39.7,83.24a4,4,0,0,0-3.84,2.94,45,45,0,0,0,6.3,4.2A4,4,0,0,0,39.7,83.24Z"/><path class="cls-5" d="M36.7,96V69.47a2,2,0,0,1,1.11-1.79L63.11,55a2,2,0,0,1,1.79,3.58L40.7,70.7V96A2,2,0,0,1,36.7,96Z"/><path class="cls-6" d="M63.11,55,37.8,67.68a2,2,0,0,0-1.11,1.79V96l.72-26.57a1.15,1.15,0,0,1,.61-1Z"/><path class="cls-7" d="M65.06,55.12a2,2,0,0,1-.73,2.94l-23.87,12a1,1,0,0,0-.56.91l.23,24.48a2,2,0,0,1-3.06,1.69,2,2,0,0,0,3.63-1.26V70.7l24.09-12A2,2,0,0,0,65.06,55.12Z"/><path class="cls-7" d="M36.7,89.69a3.92,3.92,0,0,0,4,.64V82.91a3.92,3.92,0,0,0-4,.64Z"/><circle class="cls-6" cx="38.7" cy="86.24" r="4"/><path class="cls-8" d="M41.4,83.31c3.46,3.74-1.91,9.08-5.64,5.64a4,4,0,1,0,5.64-5.64Z"/><path class="cls-9" d="M41.62,83.53A4,4,0,1,0,36,89.16C32.51,85.43,37.88,80,41.62,83.53Z"/><polygon class="cls-1" points="64.89 58.6 42.43 71.37 40.7 70.7 64.89 58.6"/></g></svg>